<svg width="24" height="40" viewBox="0 0 24 40" fill="none" xmlns="http://www.w3.org/2000/svg">
<path fill-rule="evenodd" clip-rule="evenodd" d="M2 20C2 19.8232 2.07525 19.6537 2.20919 19.5286C2.34312 19.4036 2.52482 19.3334 2.71424 19.3334H19.5603L15.0649 15.1393C14.9308 15.0142 14.8554 14.8444 14.8554 14.6674C14.8554 14.4904 14.9308 14.3206 15.0649 14.1955C15.199 14.0703 15.3809 14 15.5706 14C15.7602 14 15.9422 14.0703 16.0763 14.1955L21.7902 19.5281C21.8567 19.59 21.9095 19.6636 21.9455 19.7445C21.9815 19.8255 22 19.9123 22 20C22 20.0877 21.9815 20.1745 21.9455 20.2555C21.9095 20.3365 21.8567 20.41 21.7902 20.4719L16.0763 25.8045C15.9422 25.9297 15.7602 26 15.5706 26C15.3809 26 15.199 25.9297 15.0649 25.8045C14.9308 25.6794 14.8554 25.5096 14.8554 25.3326C14.8554 25.1556 14.9308 24.9858 15.0649 24.8606L19.5603 20.6666H2.71424C2.52482 20.6666 2.34312 20.5963 2.20919 20.4713C2.07525 20.3463 2 20.1768 2 20Z" fill="black"/>
</svg>
