<svg width="24" height="40" viewBox="0 0 24 40" fill="none" xmlns="http://www.w3.org/2000/svg">
<path fill-rule="evenodd" clip-rule="evenodd" d="M22 20C22 19.8232 21.9247 19.6537 21.7908 19.5286C21.6569 19.4036 21.4752 19.3334 21.2858 19.3334H4.4397L8.93511 15.1393C9.06921 15.0142 9.14458 14.8444 9.14458 14.6674C9.14458 14.4904 9.06921 14.3206 8.93511 14.1955C8.801 14.0703 8.61907 14 8.42942 14C8.23978 14 8.05785 14.0703 7.92374 14.1955L2.20984 19.5281C2.14332 19.59 2.09055 19.6636 2.05455 19.7445C2.01854 19.8255 2 19.9123 2 20C2 20.0877 2.01854 20.1745 2.05455 20.2555C2.09055 20.3365 2.14332 20.41 2.20984 20.4719L7.92374 25.8045C8.05785 25.9297 8.23978 26 8.42942 26C8.61907 26 8.801 25.9297 8.93511 25.8045C9.06921 25.6794 9.14458 25.5096 9.14458 25.3326C9.14458 25.1556 9.06921 24.9858 8.93511 24.8606L4.4397 20.6666H21.2858C21.4752 20.6666 21.6569 20.5963 21.7908 20.4713C21.9247 20.3463 22 20.1768 22 20Z" fill="black"/>
</svg>
